<?xml version="1.0" standalone="no"?>
<!DOCTYPE svg PUBLIC "-//W3C//DTD SVG 20010904//EN"
 "http://www.w3.org/TR/2001/REC-SVG-20010904/DTD/svg10.dtd">
<svg version="1.0" xmlns="http://www.w3.org/2000/svg"
 width="512.000000pt" height="512.000000pt" viewBox="0 0 512.000000 512.000000"
 preserveAspectRatio="xMidYMid meet">
<metadata>
Created by potrace 1.11, written by Peter Selinger 2001-2013
</metadata>
<g transform="translate(0.000000,512.000000) scale(0.100000,-0.100000)"
fill="#000000" stroke="none">
<path d="M650 5050 c0 -38 3 -71 8 -71 4 -1 16 -3 27 -4 28 -4 97 -15 122 -19
21 -5 37 -7 168 -26 44 -7 89 -14 100 -16 11 -2 40 -6 65 -9 25 -3 54 -7 65
-10 11 -2 22 -4 25 -4 4 -1 6 -1045 6 -2321 l0 -2319 -26 -5 c-42 -9 -142 -25
-190 -31 -25 -3 -58 -8 -75 -12 -16 -4 -37 -7 -45 -8 -8 -1 -68 -10 -132 -20
l-118 -19 0 -68 0 -68 938 0 938 0 -1 67 -1 68 -75 12 c-41 7 -92 15 -114 18
-22 4 -89 14 -150 25 -145 24 -207 34 -222 35 -6 0 -15 3 -18 7 -6 5 -11 2076
-6 2154 1 16 1068 16 1079 0 4 -6 12 -24 18 -41 21 -56 195 -490 208 -520 8
-16 39 -95 71 -175 84 -212 65 -190 162 -190 46 0 83 3 84 8 1 4 2 454 3 1000
0 653 -2 996 -9 1001 -15 11 -153 7 -164 -4 -5 -6 -91 -214 -192 -463 l-184
-452 -539 2 -539 3 1 1180 c0 649 1 1186 1 1193 1 9 197 12 944 12 l942 0 73
-197 c41 -109 78 -207 82 -218 5 -11 23 -58 40 -105 18 -47 38 -99 46 -117 8
-17 14 -34 14 -37 0 -5 70 -190 170 -451 21 -55 44 -117 51 -137 l13 -38 87 0
87 0 0 730 0 730 -1919 0 -1919 0 0 -70z"/>
</g>
</svg>
